<?xml version="1.0" encoding="utf-8" standalone="no"?>
<!DOCTYPE svg PUBLIC "-//W3C//DTD SVG 20010904//EN" "http://www.w3.org/TR/2001/REC-SVG-20010904/DTD/svg10.dtd">
<svg
  version="1.0"
  xmlns="http://www.w3.org/2000/svg"
  width="512pt"
  height="512pt"
  viewBox="0 0 512 512"
  preserveAspectRatio="xMidYMid meet"
>
  <g transform="translate(0,512) scale(0.1,-0.1)" fill="#000000" stroke="none">
    <path
      d="M2539 5098 c-7 -13 -24 -45 -39 -73 -111 -204 -150 -276 -150 -280 0
-2 -13 -26 -28 -52 -16 -26 -55 -97 -87 -158 -32 -60 -96 -180 -143 -265 -46
-85 -109 -202 -140 -260 -30 -58 -58 -109 -62 -115 -4 -5 -26 -46 -50 -90 -51
-95 -88 -163 -210 -390 -15 -27 -45 -84 -67 -125 -23 -41 -115 -212 -205 -380
-91 -168 -182 -336 -203 -375 -39 -73 -150 -278 -204 -378 -17 -31 -31 -61
-31 -66 0 -4 367 -8 816 -8 l817 0 0 -1041 c-1 -573 3 -1042 7 -1042 7 0 95
158 268 480 19 36 47 88 62 115 49 89 103 189 130 240 15 28 32 59 38 70 13
23 365 676 437 810 26 50 70 129 96 178 27 48 49 89 49 91 0 2 25 48 55 101
30 54 55 99 55 101 0 2 24 48 54 101 64 119 92 170 231 428 59 110 122 227
141 261 l33 61 -815 -1 c-451 -1 -818 3 -821 8 -3 4 -6 474 -5 1042 0 569 -4
1034 -9 1034 -4 0 -14 -10 -20 -22z"
    />
  </g>
</svg>
